<svg width="32" height="32" viewBox="0 0 32 32" fill="none" xmlns="http://www.w3.org/2000/svg">
    <path fill-rule="evenodd" clip-rule="evenodd" d="M9.9535 1.42131C11.5175 1.34931 12.0162 1.33331 16.0002 1.33331C19.9842 1.33331 20.4828 1.35065 22.0455 1.42131C23.6082 1.49198 24.6748 1.74131 25.6082 2.10265C26.5855 2.47198 27.4722 3.04931 28.2055 3.79598C28.9522 4.52798 29.5282 5.41331 29.8962 6.39198C30.2588 7.32531 30.5068 8.39198 30.5788 9.95198C30.6508 11.5186 30.6668 12.0173 30.6668 16C30.6668 19.984 30.6495 20.4826 30.5788 22.0466C30.5082 23.6066 30.2588 24.6733 29.8962 25.6066C29.5282 26.5854 28.9512 27.4722 28.2055 28.2053C27.4722 28.952 26.5855 29.528 25.6082 29.896C24.6748 30.2586 23.6082 30.5066 22.0482 30.5786C20.4828 30.6506 19.9842 30.6666 16.0002 30.6666C12.0162 30.6666 11.5175 30.6493 9.9535 30.5786C8.3935 30.508 7.32683 30.2586 6.3935 29.896C5.41472 29.5279 4.52792 28.951 3.79483 28.2053C3.04867 27.4729 2.47125 26.5865 2.10283 25.608C1.7415 24.6746 1.4935 23.608 1.4215 22.048C1.3495 20.4813 1.3335 19.9826 1.3335 16C1.3335 12.016 1.35083 11.5173 1.4215 9.95465C1.49216 8.39198 1.7415 7.32531 2.10283 6.39198C2.47179 5.41342 3.04965 4.52706 3.79616 3.79465C4.52822 3.04865 5.41413 2.47124 6.39216 2.10265C7.3255 1.74131 8.39216 1.49331 9.95216 1.42131H9.9535ZM21.9268 4.06131C20.3802 3.99065 19.9162 3.97598 16.0002 3.97598C12.0842 3.97598 11.6202 3.99065 10.0735 4.06131C8.64283 4.12665 7.86683 4.36531 7.3495 4.56665C6.6655 4.83331 6.17616 5.14931 5.66283 5.66265C5.17622 6.13605 4.80174 6.71236 4.56683 7.34931C4.3655 7.86665 4.12683 8.64265 4.0615 10.0733C3.99083 11.62 3.97616 12.084 3.97616 16C3.97616 19.916 3.99083 20.38 4.0615 21.9266C4.12683 23.3573 4.3655 24.1333 4.56683 24.6506C4.8015 25.2866 5.17616 25.864 5.66283 26.3373C6.13616 26.824 6.7135 27.1986 7.3495 27.4333C7.86683 27.6346 8.64283 27.8733 10.0735 27.9386C11.6202 28.0093 12.0828 28.024 16.0002 28.024C19.9175 28.024 20.3802 28.0093 21.9268 27.9386C23.3575 27.8733 24.1335 27.6346 24.6508 27.4333C25.3348 27.1666 25.8242 26.8506 26.3375 26.3373C26.8242 25.864 27.1988 25.2866 27.4335 24.6506C27.6348 24.1333 27.8735 23.3573 27.9388 21.9266C28.0095 20.38 28.0242 19.916 28.0242 16C28.0242 12.084 28.0095 11.62 27.9388 10.0733C27.8735 8.64265 27.6348 7.86665 27.4335 7.34931C27.1668 6.66531 26.8508 6.17598 26.3375 5.66265C25.8641 5.17607 25.2878 4.80159 24.6508 4.56665C24.1335 4.36531 23.3575 4.12665 21.9268 4.06131ZM14.1268 20.5213C15.173 20.9568 16.338 21.0156 17.4227 20.6876C18.5075 20.3596 19.4447 19.6652 20.0743 18.723C20.7039 17.7807 20.9869 16.6491 20.8749 15.5215C20.7629 14.3938 20.2628 13.3399 19.4602 12.54C18.9485 12.0286 18.3298 11.6371 17.6486 11.3935C16.9674 11.15 16.2407 11.0605 15.5208 11.1315C14.8009 11.2025 14.1057 11.4322 13.4852 11.8042C12.8648 12.1761 12.3345 12.681 11.9326 13.2824C11.5306 13.8839 11.2671 14.567 11.1609 15.2826C11.0546 15.9982 11.1084 16.7284 11.3182 17.4207C11.5281 18.113 11.8888 18.7501 12.3745 19.2863C12.8601 19.8224 13.4586 20.2442 14.1268 20.5213ZM10.6695 10.6693C11.3695 9.96928 12.2006 9.41398 13.1152 9.03513C14.0299 8.65627 15.0102 8.46128 16.0002 8.46128C16.9902 8.46128 17.9705 8.65627 18.8851 9.03513C19.7997 9.41398 20.6308 9.96928 21.3308 10.6693C22.0309 11.3693 22.5862 12.2004 22.965 13.115C23.3439 14.0297 23.5389 15.01 23.5389 16C23.5389 16.99 23.3439 17.9703 22.965 18.8849C22.5862 19.7996 22.0309 20.6306 21.3308 21.3306C19.917 22.7444 17.9996 23.5387 16.0002 23.5387C14.0008 23.5387 12.0833 22.7444 10.6695 21.3306C9.25572 19.9169 8.46146 17.9994 8.46146 16C8.46146 14.0006 9.25572 12.0831 10.6695 10.6693ZM25.2108 9.58398C25.3843 9.42034 25.5232 9.22355 25.6192 9.00528C25.7153 8.787 25.7666 8.55167 25.7701 8.31322C25.7735 8.07477 25.7291 7.83804 25.6395 7.61706C25.5498 7.39608 25.4167 7.19533 25.2481 7.0267C25.0795 6.85807 24.8787 6.72499 24.6578 6.63534C24.4368 6.54568 24.2 6.50128 23.9616 6.50476C23.7231 6.50823 23.4878 6.55952 23.2695 6.65557C23.0513 6.75163 22.8545 6.89051 22.6908 7.06398C22.3726 7.40135 22.1983 7.84947 22.2051 8.31322C22.2119 8.77696 22.3991 9.21982 22.727 9.54777C23.055 9.87572 23.4978 10.063 23.9616 10.0697C24.4253 10.0765 24.8735 9.90223 25.2108 9.58398Z" fill="#333333"/>
</svg>
