<svg width="32" height="32" viewBox="0 0 32 32" fill="none" xmlns="http://www.w3.org/2000/svg">
    <path fill-rule="evenodd" clip-rule="evenodd" d="M1.3335 3.78398C1.3335 3.13403 1.59169 2.51069 2.05128 2.0511C2.51087 1.59151 3.13421 1.33332 3.78416 1.33332H28.2135C28.5356 1.33279 28.8546 1.3958 29.1524 1.51874C29.4501 1.64168 29.7206 1.82213 29.9485 2.04976C30.1764 2.2774 30.3571 2.54775 30.4804 2.84533C30.6037 3.14291 30.667 3.46188 30.6668 3.78398V28.2133C30.6672 28.5355 30.604 28.8545 30.4809 29.1523C30.3578 29.45 30.1773 29.7205 29.9495 29.9484C29.7218 30.1763 29.4513 30.357 29.1537 30.4802C28.856 30.6035 28.537 30.6668 28.2148 30.6666H3.78416C3.46222 30.6666 3.14344 30.6032 2.84603 30.48C2.54861 30.3567 2.27839 30.1761 2.05081 29.9484C1.82323 29.7207 1.64274 29.4504 1.51966 29.1529C1.39658 28.8554 1.33332 28.5366 1.3335 28.2146V3.78398ZM12.9442 12.5173H16.9162V14.512C17.4895 13.3653 18.9562 12.3333 21.1602 12.3333C25.3855 12.3333 26.3868 14.6173 26.3868 18.808V26.5706H22.1108V19.7626C22.1108 17.376 21.5375 16.0293 20.0815 16.0293C18.0615 16.0293 17.2215 17.4813 17.2215 19.7626V26.5706H12.9442V12.5173ZM5.61083 26.388H9.88816V12.3333H5.61083V26.3867V26.388ZM10.5002 7.74932C10.5082 8.11555 10.4431 8.4797 10.3085 8.8204C10.1739 9.16111 9.97263 9.4715 9.71647 9.73336C9.46031 9.99522 9.15443 10.2033 8.81677 10.3453C8.47911 10.4874 8.11648 10.5605 7.75016 10.5605C7.38384 10.5605 7.02121 10.4874 6.68356 10.3453C6.3459 10.2033 6.04001 9.99522 5.78385 9.73336C5.5277 9.4715 5.32642 9.16111 5.19184 8.8204C5.05727 8.4797 4.9921 8.11555 5.00016 7.74932C5.01599 7.03046 5.31268 6.34637 5.82668 5.84356C6.34068 5.34076 7.03113 5.05921 7.75016 5.05921C8.4692 5.05921 9.15965 5.34076 9.67365 5.84356C10.1877 6.34637 10.4843 7.03046 10.5002 7.74932Z" fill="#333333"/>
</svg>