<svg width="32" height="32" viewBox="0 0 32 32" fill="none" xmlns="http://www.w3.org/2000/svg">
    <path d="M31.5242 6.58269C30.4108 7.07602 29.2148 7.40935 27.9575 7.56002C29.2548 6.78374 30.2254 5.56198 30.6882 4.12269C29.4693 4.84667 28.1353 5.35628 26.7442 5.62935C25.8087 4.63051 24.5696 3.96846 23.2193 3.74599C21.869 3.52352 20.483 3.75308 19.2765 4.39902C18.07 5.04497 17.1105 6.07117 16.5471 7.31829C15.9836 8.56542 15.8476 9.96369 16.1602 11.296C13.6904 11.172 11.2743 10.5301 9.06874 9.41189C6.86314 8.2937 4.9173 6.72424 3.35751 4.80535C2.82418 5.72535 2.51751 6.79202 2.51751 7.92802C2.51692 8.95068 2.76876 9.95768 3.25068 10.8597C3.73261 11.7617 4.42973 12.5307 5.28018 13.0987C4.29388 13.0673 3.32934 12.8008 2.46685 12.3214V12.4014C2.46675 13.8357 2.96289 15.2259 3.87109 16.336C4.77929 17.4462 6.04361 18.2079 7.44951 18.492C6.53456 18.7396 5.5753 18.7761 4.64418 18.5987C5.04084 19.8328 5.81351 20.9121 6.854 21.6853C7.8945 22.4585 9.15073 22.8869 10.4468 22.9107C8.24662 24.6379 5.52936 25.5748 2.73218 25.5707C2.23669 25.5708 1.74161 25.5419 1.24951 25.484C4.08881 27.3096 7.39397 28.2784 10.7695 28.2747C22.1962 28.2747 28.4428 18.8107 28.4428 10.6027C28.4428 10.336 28.4362 10.0667 28.4242 9.80002C29.6392 8.92132 30.6881 7.83322 31.5215 6.58669L31.5242 6.58269Z" fill="#333333"/>
</svg>
